<?xml version="1.0" encoding="UTF-8"?>
<svg version="1.1" xmlns="http://www.w3.org/2000/svg" width="21" height="20">
<path d="M0 0 C0 0.66 0 1.32 0 2 C0.66 2 1.32 2 2 2 C4.84227766 6.26341649 4.73249807 9.99990449 4 15 C2.1875 18.125 2.1875 18.125 -1 20 C-6.32060254 20.95722984 -10.48406766 20.8917249 -15.1875 18.125 C-17.76182195 13.68651388 -17.96846481 10.00647064 -17 5 C-13.22472302 -1.74156604 -6.84458369 -0.49123806 0 0 Z M-11.9375 3.5625 C-14.4184607 6.49454447 -14.92041552 8.17994479 -15 12 C-14.20609163 14.59824558 -13.44719573 15.6521811 -11.3125 17.3125 C-7.92838082 18.31858949 -5.40333226 17.80442399 -2 17 C0.74185337 15.26349287 0.96905365 14.11664395 1.8125 10.9375 C1.874375 9.968125 1.93625 8.99875 2 8 C1.34 7.34 0.68 6.68 0 6 C-0.61488281 7.06541016 -0.61488281 7.06541016 -1.2421875 8.15234375 C-2.05042969 9.53099609 -2.05042969 9.53099609 -2.875 10.9375 C-3.40867187 11.85402344 -3.94234375 12.77054688 -4.4921875 13.71484375 C-6 16 -6 16 -8 17 C-8.28875 16.2575 -8.5775 15.515 -8.875 14.75 C-9.82302644 12.43260203 -10.84845911 10.22082885 -12 8 C-11.01 8 -10.02 8 -9 8 C-8.34 9.32 -7.68 10.64 -7 12 C-4.59927045 9.11912454 -2.52708963 6.43595166 -1 3 C-6.66675833 1.72478675 -6.66675833 1.72478675 -11.9375 3.5625 Z " fill="#FF5555" transform="translate(17,0)"/>
</svg>
